<?xml version="1.0" standalone="no"?>
<!DOCTYPE svg PUBLIC "-//W3C//DTD SVG 20010904//EN"
 "http://www.w3.org/TR/2001/REC-SVG-20010904/DTD/svg10.dtd">
<svg version="1.0" xmlns="http://www.w3.org/2000/svg"
 width="512.000000pt" height="512.000000pt" viewBox="0 0 512.000000 512.000000"
 preserveAspectRatio="xMidYMid meet">

<g transform="translate(0.000000,512.000000) scale(0.100000,-0.100000)"
fill="#000000" stroke="none">
<path d="M2341 5109 c-1102 -116 -1883 -1108 -2027 -2574 -20 -209 -15 -592
11 -755 131 -837 653 -1435 1458 -1669 259 -76 479 -105 772 -104 689 4 1265
217 1668 617 313 311 502 701 573 1186 24 164 24 566 0 784 -131 1198 -712
2101 -1543 2402 -278 100 -622 143 -912 113z m1484 -1192 c170 -60 305 -184
365 -336 118 -302 162 -852 90 -1136 -66 -259 -236 -405 -545 -465 -108 -22
-439 -23 -735 -5 -305 20 -598 22 -795 5 -226 -18 -619 -24 -734 -11 -229 27
-365 83 -476 195 -39 39 -82 94 -97 121 -122 229 -126 751 -9 1171 43 153 83
226 171 314 103 103 212 155 365 174 17 2 545 3 1175 2 l1145 -1 80 -28z
m-2647 -2107 c41 -25 70 -88 77 -167 20 -242 29 -323 46 -428 38 -228 99 -431
170 -564 46 -86 44 -91 -42 -91 -219 0 -397 241 -488 662 -56 260 -39 480 42
556 58 54 137 67 195 32z m2937 -15 c127 -96 130 -409 8 -775 -100 -302 -249
-460 -432 -460 -86 0 -88 5 -42 91 71 133 132 336 170 564 17 105 26 186 46
428 7 78 36 141 77 167 47 30 123 23 173 -15z m-2076 -82 c49 -36 73 -106 82
-238 25 -351 78 -663 154 -905 30 -94 102 -253 136 -301 31 -44 15 -54 -84
-54 -71 0 -91 4 -147 31 -206 99 -351 360 -446 805 -34 158 -40 408 -12 499
22 70 68 140 107 163 65 38 157 38 210 0z m1252 0 c39 -23 85 -93 107 -163 28
-91 22 -341 -12 -499 -95 -445 -240 -706 -446 -805 -56 -27 -76 -31 -147 -31
-99 0 -115 10 -84 54 34 48 106 207 136 301 76 242 129 554 154 905 12 173 51
245 142 264 42 9 111 -3 150 -26z"/>
<path d="M1490 3694 c-60 -34 -78 -52 -102 -99 -60 -117 12 -263 198 -401 179
-133 366 -204 534 -204 124 0 202 23 295 87 72 50 81 66 43 71 -79 11 -252 91
-372 172 -98 66 -280 224 -350 303 -90 102 -158 121 -246 71z"/>
<path d="M2345 3709 c-33 -4 -95 -13 -138 -20 l-79 -12 49 -49 c99 -102 325
-248 383 -248 58 0 284 146 383 248 l48 49 -43 7 c-219 35 -458 45 -603 25z"/>
<path d="M3474 3704 c-18 -8 -58 -45 -90 -81 -70 -79 -252 -237 -350 -303
-120 -81 -293 -161 -372 -172 -39 -5 -29 -21 43 -71 94 -64 171 -87 295 -87
124 0 237 31 369 101 240 128 382 281 383 414 1 142 -160 257 -278 199z"/>
<path d="M1215 3162 c-50 -10 -75 -64 -51 -111 37 -71 147 -45 146 35 -1 50
-46 86 -95 76z"/>
<path d="M3861 3158 c-54 -20 -69 -88 -28 -126 40 -37 98 -28 123 19 33 64
-28 132 -95 107z"/>
<path d="M1555 2966 c-116 -37 -216 -123 -267 -231 -114 -245 21 -532 282
-600 236 -61 472 85 527 326 48 215 -76 429 -292 503 -58 19 -192 21 -250 2z
m217 -160 c89 -32 160 -125 174 -227 15 -112 -62 -237 -172 -279 -280 -104
-496 247 -278 452 67 62 187 86 276 54z"/>
<path d="M3310 2962 c-120 -46 -202 -117 -252 -219 -162 -329 137 -700 492
-608 261 68 396 355 282 600 -41 87 -121 166 -209 208 -60 28 -79 32 -168 34
-76 2 -111 -2 -145 -15z m240 -163 c183 -83 220 -324 69 -452 -111 -96 -271
-86 -372 22 -55 59 -83 138 -73 210 14 102 85 195 174 227 56 20 150 17 202
-7z"/>
<path d="M1035 2841 c-52 -22 -64 -84 -25 -126 29 -31 68 -32 104 -4 66 52 -1
162 -79 130z"/>
<path d="M4023 2840 c-49 -20 -59 -96 -17 -129 36 -28 75 -27 104 4 58 61 -9
157 -87 125z"/>
</g>
</svg>
